<svg fill="none" xmlns="http://www.w3.org/2000/svg" viewBox="0 0 55 60">
  <mask id="Lj2js2K2YNQNa" fill="#fff">
    <path fill-rule="evenodd" clip-rule="evenodd" d="M55 30L27.5 0 0 30v30h35V37.5a7.5 7.5 0 0115 0V60h5V30zm-40 0a5 5 0 00-5 5v10h10V35a5 5 0 00-5-5z"/>
  </mask>
  <path fill-rule="evenodd" clip-rule="evenodd" d="M55 30L27.5 0 0 30v30h35V37.5a7.5 7.5 0 0115 0V60h5V30zm-40 0a5 5 0 00-5 5v10h10V35a5 5 0 00-5-5z" fill="#D9D9D9"/>
  <path d="M27.5 0l.737-.676-.737-.804-.737.804L27.5 0zM55 30h1v-.389l-.263-.287L55 30zM0 30l-.737-.676-.263.287V30h1zm0 30h-1v1h1v-1zm35 0v1h1v-1h-1zm15 0h-1v1h1v-1zm5 0v1h1v-1h-1zM10 45H9v1h1v-1zm10 0v1h1v-1h-1zM26.763.676l27.5 30 1.474-1.352-27.5-30L26.763.676zm-26.026 30l27.5-30-1.474-1.352-27.5 30 1.474 1.352zM1 60V30h-2v30h2zm34-1H0v2h35v-2zm-1-21.5V60h2V37.5h-2zm8.5-8.5a8.5 8.5 0 00-8.5 8.5h2a6.5 6.5 0 016.5-6.5v-2zm8.5 8.5a8.5 8.5 0 00-8.5-8.5v2a6.5 6.5 0 016.5 6.5h2zM51 60V37.5h-2V60h2zm4-1h-5v2h5v-2zm-1-29v30h2V30h-2zm-43 5a4 4 0 014-4v-2a6 6 0 00-6 6h2zm0 10V35H9v10h2zm9-1H10v2h10v-2zm-1-9v10h2V35h-2zm-4-4a4 4 0 014 4h2a6 6 0 00-6-6v2z" fill="#000" mask="url(#Lj2js2K2YNQNa)"/>
</svg>
